<svg id="Capa_1" enable-background="new 0 0 512 512" height="512" viewBox="0 0 512 512" width="512" xmlns="http://www.w3.org/2000/svg"><g><path d="m90.839 57.807h-16.516l-7.656 16.516 14 12.011 26.688-12.011c0-9.122-7.395-16.516-16.516-16.516z" fill="#dad8db"/><path d="m74.323 57.807c-9.121 0-16.516 7.394-16.516 16.516v24.774h49.548v-24.774h-16.516c-9.122 0-16.516-7.395-16.516-16.516z" fill="#c8c5c9"/><path d="m478.968 90.839h-101.236c-8.891 0-17.099-4.763-21.51-12.483l-7.024-12.292-33.252-14.064h-119.892l-33.252 14.064-7.024 12.292c-4.411 7.719-12.62 12.483-21.51 12.483h-101.236c-6.017 0-11.658 1.609-16.517 4.419l-8.048 28.613v240.097c.001 18.243 14.79 33.032 33.033 33.032h437.468l28.612-8.87c2.811-4.859 4.42-10.5 4.42-16.517v-247.742c0-18.243-14.789-33.032-33.032-33.032z" fill="#eceaec"/><path d="m348.908 310.946h16.514v75.923h-16.514z" fill="#857e87" transform="matrix(.707 -.707 .707 .707 -142.103 354.747)"/><path d="m349.198 66.065-11.742-20.549c-4.411-7.719-12.619-12.483-21.51-12.483h-119.892c-8.891 0-17.099 4.764-21.51 12.483l-11.742 20.549z" fill="#dad8db"/><path d="m16.516 355.097v-259.838c-9.832 5.722-16.516 16.416-16.516 28.612v247.742c0 18.243 14.789 33.032 33.032 33.032h445.935c12.196 0 22.887-6.684 28.609-16.516h-458.028c-18.243 0-33.032-14.789-33.032-33.032z" fill="#dad8db"/><path d="m371.613 247.742c0 22.321-6.326 43.165-17.282 60.836-20.385 32.879-56.801 44.422-98.331 44.422-63.851 0-103.667-41.407-103.667-105.258 0-41.513 9.933-77.916 42.79-98.306 17.68-10.972 38.539-17.307 60.877-17.307 63.851 0 115.613 51.762 115.613 115.613z" fill="#857e87"/><path d="m353.753 231.21c-6.697-41.309-39.912-74.524-81.221-81.221-24.115-3.91-46.907.922-65.787 11.8-7.74 4.46-16.583-4.252-11.885-11.85l.262-.502c-36.731 22.869-59.86 65.833-53.76 113.52 6.571 51.378 48.044 92.851 99.423 99.423 47.687 6.099 90.676-17.07 113.546-53.801-.102.064-.425.24-.528.304-7.598 4.698-16.31-4.145-11.85-11.885 10.878-18.881 15.71-41.674 11.8-65.788z" fill="#6f6571"/><circle cx="256" cy="247.742" fill="#4b3f4e" r="82.581"/><path d="m398.04 366.424c-6.45-6.45-16.907-6.45-23.357 0l5.508 19.099 22.977 22.976 12.391-24.557z" fill="#c8c5c9"/><path d="m415.558 407.3-40.876-40.876c-.648.646-1.242 1.345-1.801 2.121-4.808 6.676-3.392 16.043 2.426 21.861l16.894 16.894c6.45 6.45 16.907 6.45 23.357 0z" fill="#b6b1b7"/><path d="m429.419 165.161h24.774c9.122 0 16.516-7.395 16.516-16.516 0-9.122-7.395-16.516-16.516-16.516h-24.774c-9.122 0-16.516 7.395-16.516 16.516 0 9.122 7.395 16.516 16.516 16.516z" fill="#fff"/><path d="m90.839 140.387c-9.121 0-16.516 7.394-16.516 16.516v181.677c0 9.121 7.395 16.516 16.516 16.516s16.516-7.395 16.516-16.516v-181.677c0-9.122-7.395-16.516-16.516-16.516z" fill="#dad8db"/><circle cx="256" cy="247.742" fill="#5d5360" r="33.032"/><path d="m429.419 132.129h-24.774c-9.121 0-16.516 7.394-16.516 16.516 0 9.121 7.395 16.516 16.516 16.516h24.774z" fill="#ffe07d"/><path d="m415.558 383.943-11.678 11.678 60.701 72.959 17.808 5.55c6.45-6.45 6.45-16.907 0-23.357z" fill="#857e87"/><path d="m482.388 474.13-78.509-78.509-11.678 11.679 66.83 66.83c6.45 6.45 16.908 6.45 23.357 0z" fill="#6f6571"/></g></svg>