<svg id="Capa_1" enable-background="new 0 0 512 512" height="512" viewBox="0 0 512 512" width="512" xmlns="http://www.w3.org/2000/svg"><g><path d="m505.107 467.82-76.035-76.036c-4.445-4.444-10.354-6.892-16.64-6.892-3.696 0-7.259.852-10.473 2.453l-19.462-19.462c15.752-18.191 25.293-41.899 25.293-67.794 0-57.177-46.517-103.693-103.694-103.693s-103.693 46.517-103.693 103.693 46.517 103.693 103.693 103.693c25.895 0 49.603-9.542 67.794-25.293l19.462 19.462c-1.601 3.214-2.453 6.777-2.453 10.473 0 6.286 2.448 12.195 6.893 16.64l76.035 76.035c4.444 4.445 10.354 6.893 16.64 6.893s12.195-2.448 16.64-6.892c4.445-4.445 6.893-10.354 6.893-16.64s-2.448-12.195-6.893-16.64zm-289.704-167.731c0-48.906 39.788-88.693 88.693-88.693s88.694 39.787 88.694 88.693c0 48.905-39.788 88.693-88.694 88.693s-88.693-39.788-88.693-88.693zm188.497 108.335c0-2.279.887-4.421 2.499-6.033s3.754-2.499 6.033-2.499 4.421.888 6.033 2.499l6.603 6.603-12.066 12.066-6.603-6.603c-1.611-1.611-2.499-3.754-2.499-6.033zm90.601 82.069c-1.612 1.612-3.754 2.499-6.033 2.499s-4.421-.887-6.033-2.499l-58.826-58.826 12.066-12.066 58.826 58.826c1.612 1.611 2.499 3.754 2.499 6.033s-.887 4.421-2.499 6.033z"/><path d="m304.097 228.46c-12.729 0-25.295 3.448-36.34 9.972-3.566 2.106-4.75 6.705-2.644 10.271 2.107 3.567 6.705 4.751 10.272 2.644 8.737-5.16 18.666-7.887 28.712-7.887 31.225 0 56.629 25.403 56.629 56.629 0 10.047-2.727 19.976-7.887 28.712-2.106 3.567-.922 8.166 2.644 10.272 1.197.708 2.51 1.043 3.807 1.043 2.565 0 5.065-1.318 6.465-3.688 6.523-11.045 9.971-23.611 9.971-36.34 0-39.496-32.133-71.628-71.629-71.628z"/><path d="m332.809 348.83c-8.737 5.16-18.665 7.888-28.712 7.888-31.225 0-56.629-25.404-56.629-56.629 0-10.047 2.728-19.976 7.888-28.713 2.106-3.566.922-8.165-2.644-10.271-3.565-2.106-8.165-.923-10.272 2.644-6.523 11.046-9.972 23.612-9.972 36.341 0 39.496 32.133 71.629 71.629 71.629 12.729 0 25.295-3.448 36.34-9.972 3.566-2.106 4.75-6.706 2.644-10.272-2.107-3.567-6.706-4.75-10.272-2.645z"/><path d="m63.613 44.089h-16.032c-4.142 0-7.5 3.357-7.5 7.5 0 4.142 3.358 7.5 7.5 7.5h16.032c4.142 0 7.5-3.358 7.5-7.5 0-4.143-3.358-7.5-7.5-7.5z"/><path d="m295.564 51.589c0-4.143-3.358-7.5-7.5-7.5h-192.387c-4.142 0-7.5 3.357-7.5 7.5 0 4.142 3.358 7.5 7.5 7.5h192.387c4.143 0 7.5-3.358 7.5-7.5z"/><path d="m47.581 156.315c-4.142 0-7.5 3.358-7.5 7.5s3.358 7.5 7.5 7.5h16.032c4.142 0 7.5-3.358 7.5-7.5s-3.358-7.5-7.5-7.5z"/><path d="m95.677 156.315c-4.142 0-7.5 3.358-7.5 7.5s3.358 7.5 7.5 7.5h192.387c4.142 0 7.5-3.358 7.5-7.5s-3.358-7.5-7.5-7.5z"/><path d="m191.871 228.46h-16.548v-17.064h44.604c4.142 0 7.5-3.358 7.5-7.5 0-4.143-3.358-7.5-7.5-7.5h-196.395c-4.705 0-8.532-3.828-8.532-8.533v-48.097c0-4.705 3.828-8.532 8.532-8.532h288.581c4.705 0 8.532 3.828 8.532 8.532v32.064c0 4.142 3.358 7.5 7.5 7.5s7.5-3.358 7.5-7.5v-32.064c0-12.976-10.557-23.532-23.532-23.532h-136.79v-17.064h136.79c12.976 0 23.532-10.556 23.532-23.532v-48.098c0-12.976-10.557-23.532-23.532-23.532h-288.581c-12.975 0-23.532 10.557-23.532 23.532v48.097c0 12.976 10.557 23.533 23.532 23.533h136.791v17.064h-136.791c-12.975 0-23.532 10.556-23.532 23.532v48.097c0 12.976 10.557 23.533 23.532 23.533h136.791v17.064h-136.791c-12.975 0-23.532 10.557-23.532 23.532v48.097c0 12.976 10.557 23.532 23.532 23.532h152.307c4.142 0 7.5-3.358 7.5-7.5 0-4.143-3.358-7.5-7.5-7.5h-152.307c-4.705 0-8.532-3.828-8.532-8.532v-48.097c0-4.705 3.828-8.532 8.532-8.532h168.339c4.142 0 7.5-3.358 7.5-7.5s-3.358-7.5-7.5-7.5zm-176.871-152.823v-48.097c0-4.704 3.828-8.532 8.532-8.532h288.581c4.705 0 8.532 3.828 8.532 8.532v48.097c0 4.705-3.828 8.532-8.532 8.532h-288.581c-4.704.001-8.532-3.827-8.532-8.532z"/><path d="m47.581 268.54c-4.142 0-7.5 3.358-7.5 7.5 0 4.143 3.358 7.5 7.5 7.5h16.032c4.142 0 7.5-3.357 7.5-7.5 0-4.142-3.358-7.5-7.5-7.5z"/><path d="m95.677 268.54c-4.142 0-7.5 3.358-7.5 7.5 0 4.143 3.358 7.5 7.5 7.5h80.162c4.142 0 7.5-3.357 7.5-7.5 0-4.142-3.358-7.5-7.5-7.5z"/></g></svg>